<?xml version="1.0" encoding="UTF-8" standalone="no"?>
<!-- Created with Inkscape (http://www.inkscape.org/) -->

<svg
   width="580"
   height="260"
   viewBox="0 0 153.45833 68.791666"
   version="1.1"
   id="svg1"
   inkscape:version="1.4 (86a8ad7, 2024-10-11)"
   sodipodi:docname="concord-logo.svg"
   xmlns:inkscape="http://www.inkscape.org/namespaces/inkscape"
   xmlns:sodipodi="http://sodipodi.sourceforge.net/DTD/sodipodi-0.dtd"
   xmlns="http://www.w3.org/2000/svg"
   xmlns:svg="http://www.w3.org/2000/svg">
  <sodipodi:namedview
     id="namedview1"
     pagecolor="#505050"
     bordercolor="#ffffff"
     borderopacity="1"
     inkscape:showpageshadow="0"
     inkscape:pageopacity="0"
     inkscape:pagecheckerboard="1"
     inkscape:deskcolor="#505050"
     inkscape:document-units="mm"
     inkscape:zoom="0.98082912"
     inkscape:cx="396.60323"
     inkscape:cy="399.1521"
     inkscape:window-width="2560"
     inkscape:window-height="1361"
     inkscape:window-x="-9"
     inkscape:window-y="41"
     inkscape:window-maximized="1"
     inkscape:current-layer="layer1" />
  <defs
     id="defs1">
    <clipPath
       clipPathUnits="userSpaceOnUse"
       id="clipPath3">
      <path
         d="M 0,841.89 H 595.275 V 0 H 0 Z"
         transform="translate(-69.691702,-486.57041)"
         id="path3" />
    </clipPath>
    <clipPath
       clipPathUnits="userSpaceOnUse"
       id="clipPath5">
      <path
         d="M 0,841.89 H 595.275 V 0 H 0 Z"
         transform="translate(-154.8627,-376.24151)"
         id="path5" />
    </clipPath>
    <clipPath
       clipPathUnits="userSpaceOnUse"
       id="clipPath7">
      <path
         d="M 0,841.89 H 595.275 V 0 H 0 Z"
         transform="translate(-154.8627,-466.98711)"
         id="path7" />
    </clipPath>
    <clipPath
       clipPathUnits="userSpaceOnUse"
       id="clipPath9">
      <path
         d="M 0,841.89 H 595.275 V 0 H 0 Z"
         transform="translate(-417.79251,-398.64941)"
         id="path9" />
    </clipPath>
    <clipPath
       clipPathUnits="userSpaceOnUse"
       id="clipPath11">
      <path
         d="M 0,841.89 H 595.275 V 0 H 0 Z"
         transform="translate(-197.8599,-405.77071)"
         id="path11" />
    </clipPath>
    <clipPath
       clipPathUnits="userSpaceOnUse"
       id="clipPath13">
      <path
         d="M 0,841.89 H 595.275 V 0 H 0 Z"
         transform="translate(-218.1331,-409.31671)"
         id="path13" />
    </clipPath>
    <clipPath
       clipPathUnits="userSpaceOnUse"
       id="clipPath15">
      <path
         d="M 0,841.89 H 595.275 V 0 H 0 Z"
         transform="translate(-237.35811,-409.31671)"
         id="path15" />
    </clipPath>
    <clipPath
       clipPathUnits="userSpaceOnUse"
       id="clipPath17">
      <path
         d="M 0,841.89 H 595.275 V 0 H 0 Z"
         transform="translate(-248.52561,-412.82911)"
         id="path17" />
    </clipPath>
    <clipPath
       clipPathUnits="userSpaceOnUse"
       id="clipPath19">
      <path
         d="M 0,841.89 H 595.275 V 0 H 0 Z"
         transform="translate(-276.8071,-412.82911)"
         id="path19" />
    </clipPath>
    <clipPath
       clipPathUnits="userSpaceOnUse"
       id="clipPath21">
      <path
         d="M 0,841.89 H 595.275 V 0 H 0 Z"
         transform="translate(-299.97561,-412.82911)"
         id="path21" />
    </clipPath>
    <clipPath
       clipPathUnits="userSpaceOnUse"
       id="clipPath23">
      <path
         d="M 0,841.89 H 595.275 V 0 H 0 Z"
         transform="translate(-329.05541,-405.77071)"
         id="path23" />
    </clipPath>
    <clipPath
       clipPathUnits="userSpaceOnUse"
       id="clipPath25">
      <path
         d="M 0,841.89 H 595.275 V 0 H 0 Z"
         transform="translate(-343.56921,-412.82911)"
         id="path25" />
    </clipPath>
    <clipPath
       clipPathUnits="userSpaceOnUse"
       id="clipPath27">
      <path
         d="M 0,841.89 H 595.275 V 0 H 0 Z"
         transform="translate(-369.93511,-405.77071)"
         id="path27" />
    </clipPath>
    <clipPath
       clipPathUnits="userSpaceOnUse"
       id="clipPath29">
      <path
         d="M 0,841.89 H 595.275 V 0 H 0 Z"
         transform="translate(-387.51121,-411.53051)"
         id="path29" />
    </clipPath>
    <clipPath
       clipPathUnits="userSpaceOnUse"
       id="clipPath31">
      <path
         d="M 0,841.89 H 595.275 V 0 H 0 Z"
         transform="translate(-403.12391,-412.82911)"
         id="path31" />
    </clipPath>
    <clipPath
       clipPathUnits="userSpaceOnUse"
       id="clipPath33">
      <path
         d="M 0,841.89 H 595.275 V 0 H 0 Z"
         transform="translate(-424.42951,-412.82911)"
         id="path33" />
    </clipPath>
    <clipPath
       clipPathUnits="userSpaceOnUse"
       id="clipPath35">
      <path
         d="M 0,841.89 H 595.275 V 0 H 0 Z"
         transform="translate(-446.00061,-412.82911)"
         id="path35" />
    </clipPath>
    <clipPath
       clipPathUnits="userSpaceOnUse"
       id="clipPath37">
      <path
         d="M 0,841.89 H 595.275 V 0 H 0 Z"
         transform="translate(-467.02341,-412.82911)"
         id="path37" />
    </clipPath>
    <clipPath
       clipPathUnits="userSpaceOnUse"
       id="clipPath39">
      <path
         d="M 0,841.89 H 595.275 V 0 H 0 Z"
         transform="translate(-495.43701,-412.82911)"
         id="path39" />
    </clipPath>
    <clipPath
       clipPathUnits="userSpaceOnUse"
       id="clipPath41">
      <path
         d="M 0,841.89 H 595.275 V 0 H 0 Z"
         transform="translate(-223.21081,-458.44081)"
         id="path41" />
    </clipPath>
    <clipPath
       clipPathUnits="userSpaceOnUse"
       id="clipPath43">
      <path
         d="M 0,841.89 H 595.275 V 0 H 0 Z"
         transform="translate(-273.8839,-448.95961)"
         id="path43" />
    </clipPath>
    <clipPath
       clipPathUnits="userSpaceOnUse"
       id="clipPath45">
      <path
         d="M 0,841.89 H 595.275 V 0 H 0 Z"
         transform="translate(-287.9308,-471.09051)"
         id="path45" />
    </clipPath>
    <clipPath
       clipPathUnits="userSpaceOnUse"
       id="clipPath47">
      <path
         d="M 0,841.89 H 595.275 V 0 H 0 Z"
         transform="translate(-364.08061,-458.44081)"
         id="path47" />
    </clipPath>
    <clipPath
       clipPathUnits="userSpaceOnUse"
       id="clipPath49">
      <path
         d="M 0,841.89 H 595.275 V 0 H 0 Z"
         transform="translate(-414.75331,-448.95961)"
         id="path49" />
    </clipPath>
    <clipPath
       clipPathUnits="userSpaceOnUse"
       id="clipPath51">
      <path
         d="M 0,841.89 H 595.275 V 0 H 0 Z"
         transform="translate(-436.97081,-450.03311)"
         id="path51" />
    </clipPath>
    <clipPath
       clipPathUnits="userSpaceOnUse"
       id="clipPath53">
      <path
         d="M 0,841.89 H 595.275 V 0 H 0 Z"
         transform="translate(-475.57891,-434.87751)"
         id="path53" />
    </clipPath>
  </defs>
  <g
     inkscape:label="Layer 1"
     inkscape:groupmode="layer"
     id="layer1">
    <g
       id="g1"
       transform="translate(0.49368236,0.22908533)">
      <path
         id="path2"
         d="M 0,0 C 3.417,40.146 49.068,69.207 85.171,73.321 V 34.011 C 47.533,29.69 14.15,10.944 7.321,-29.34 3.555,-22.441 -0.835,-13.451 0,0"
         style="fill:#1d4e9e;fill-opacity:1;fill-rule:evenodd;stroke:none;stroke-width:1.04181"
         transform="matrix(0.34159565,0,0,-0.33566926,3.6409084,27.022783)"
         clip-path="url(#clipPath3)" />
      <path
         id="path4"
         d="m 0,0 c -11.222,-3.831 -20.771,-6.132 -33.386,-5.433 -24.882,1.74 -55.895,23.623 -56.035,58.122 l -0.348,42.308 c 3.066,-11.57 5.436,-22.442 10.594,-29.902 13.311,-19.304 30.387,-29.897 52.828,-31.429 8.99,-0.421 19.167,0.974 26.347,6.69 z"
         style="fill:#1d4e9e;fill-opacity:1;fill-rule:evenodd;stroke:none;stroke-width:1.04181"
         transform="matrix(0.34159565,0,0,-0.33566926,32.734953,64.05681)"
         clip-path="url(#clipPath5)" />
      <path
         id="path6"
         d="m 0,0 v -37.22 c 0,-0.138 -0.21,-0.138 -0.21,-0.138 -11.709,-8.012 -26.277,-7.039 -32.478,2.161 -6.553,8.85 -2.232,23 9.339,31.012 C -15.891,0.974 -7.041,2.299 0,0"
         style="fill:#788fc5;fill-opacity:1;fill-rule:evenodd;stroke:none;stroke-width:1.04181"
         transform="matrix(0.34159565,0,0,-0.33566926,32.734953,33.596302)"
         clip-path="url(#clipPath7)" />
      <path
         id="path8"
         d="M 0,0 -0.085,0.316"
         style="fill:#1d4e9e;fill-opacity:1;fill-rule:evenodd;stroke:none;stroke-width:1.04181"
         transform="matrix(0.34159565,0,0,-0.33566926,122.55064,56.535166)"
         clip-path="url(#clipPath9)" />
      <path
         id="path10"
         d="M 0,0 -2.314,5.144 -4.761,0 Z m -3.147,7.058 h 1.781 L 4.012,-5.027 H 2.231 L 0.699,-1.581 H -5.477 L -7.075,-5.027 H -8.89 Z"
         style="fill:#1d4e9e;fill-opacity:1;fill-rule:nonzero;stroke:none;stroke-width:1.04181"
         transform="matrix(0.34159565,0,0,-0.33566926,47.42261,54.144761)"
         clip-path="url(#clipPath11)" />
      <path
         id="path12"
         d="m 0,0 c -0.116,1.548 -1.149,2.247 -3.246,2.247 -2.097,0 -3.163,-0.699 -3.163,-1.915 0,-0.981 0.683,-1.365 2.147,-1.647 l 2.648,-0.516 c 2.547,-0.483 3.762,-1.249 3.762,-3.28 0,-2.331 -1.848,-3.779 -5.244,-3.779 -3.613,0 -5.51,1.499 -5.51,4.395 h 1.814 c 0.067,-1.897 1.299,-2.813 3.796,-2.813 2.18,0 3.346,0.782 3.346,2.047 0,0.999 -0.65,1.465 -2.081,1.715 l -2.98,0.533 c -2.364,0.416 -3.496,1.365 -3.496,3.196 0,2.264 1.748,3.646 5.095,3.646 3.096,0 4.81,-1.382 4.81,-3.829 z"
         style="fill:#1d4e9e;fill-opacity:1;fill-rule:nonzero;stroke:none;stroke-width:1.04181"
         transform="matrix(0.34159565,0,0,-0.33566926,54.347847,52.954478)"
         clip-path="url(#clipPath13)" />
      <path
         id="path14"
         d="m 0,0 c -0.117,1.548 -1.149,2.247 -3.246,2.247 -2.097,0 -3.163,-0.699 -3.163,-1.915 0,-0.981 0.683,-1.365 2.147,-1.647 l 2.648,-0.516 c 2.547,-0.483 3.762,-1.249 3.762,-3.28 0,-2.331 -1.848,-3.779 -5.244,-3.779 -3.613,0 -5.51,1.499 -5.51,4.395 h 1.814 c 0.067,-1.897 1.299,-2.813 3.796,-2.813 2.181,0 3.346,0.782 3.346,2.047 0,0.999 -0.649,1.465 -2.081,1.715 l -2.98,0.533 c -2.364,0.416 -3.496,1.365 -3.496,3.196 0,2.264 1.748,3.646 5.094,3.646 3.097,0 4.811,-1.382 4.811,-3.829 z"
         style="fill:#1d4e9e;fill-opacity:1;fill-rule:nonzero;stroke:none;stroke-width:1.04181"
         transform="matrix(0.34159565,0,0,-0.33566926,60.915025,52.954478)"
         clip-path="url(#clipPath15)" />
      <path
         id="path16"
         d="M 0,0 H 9.605 V -1.582 H 1.715 V -5.111 H 9.122 V -6.693 H 1.715 v -3.811 h 8.006 v -1.582 H 0 Z"
         style="fill:#1d4e9e;fill-opacity:1;fill-rule:nonzero;stroke:none;stroke-width:1.04181"
         transform="matrix(0.34159565,0,0,-0.33566926,64.729795,51.77547)"
         clip-path="url(#clipPath17)" />
      <path
         id="path18"
         d="m 0,0 v -1.582 h -4.612 v -10.504 h -1.714 v 10.504 h -4.611 V 0 Z"
         style="fill:#1d4e9e;fill-opacity:1;fill-rule:nonzero;stroke:none;stroke-width:1.04181"
         transform="matrix(0.34159565,0,0,-0.33566926,74.390631,51.77547)"
         clip-path="url(#clipPath19)" />
      <path
         id="path20"
         d="M 0,0 4.662,-10.521 9.44,0 h 2.546 V -12.086 H 10.322 V -1.482 L 5.527,-12.086 H 3.797 L -0.915,-1.482 V -12.086 H -2.58 V 0 Z"
         style="fill:#1d4e9e;fill-opacity:1;fill-rule:nonzero;stroke:none;stroke-width:1.04181"
         transform="matrix(0.34159565,0,0,-0.33566926,82.30489,51.77547)"
         clip-path="url(#clipPath21)" />
      <path
         id="path22"
         d="M 0,0 -2.313,5.144 -4.76,0 Z m -3.145,7.058 h 1.781 L 4.012,-5.027 H 2.231 l -1.532,3.446 h -6.176 l -1.598,-3.446 h -1.814 z"
         style="fill:#1d4e9e;fill-opacity:1;fill-rule:nonzero;stroke:none;stroke-width:1.04181"
         transform="matrix(0.34159565,0,0,-0.33566926,92.238426,54.144761)"
         clip-path="url(#clipPath23)" />
      <path
         id="path24"
         d="M 0,0 7.608,-10.305 V 0 H 9.272 V -12.086 H 6.959 L -0.633,-1.782 V -12.086 H -2.297 V 0 Z"
         style="fill:#1d4e9e;fill-opacity:1;fill-rule:nonzero;stroke:none;stroke-width:1.04181"
         transform="matrix(0.34159565,0,0,-0.33566926,97.196281,51.77547)"
         clip-path="url(#clipPath25)" />
      <path
         id="path26"
         d="M 0,0 -2.313,5.144 -4.76,0 Z m -3.145,7.058 h 1.781 L 4.012,-5.027 H 2.231 l -1.532,3.446 h -6.176 l -1.597,-3.446 h -1.815 z"
         style="fill:#1d4e9e;fill-opacity:1;fill-rule:nonzero;stroke:none;stroke-width:1.04181"
         transform="matrix(0.34159565,0,0,-0.33566926,106.20275,54.144761)"
         clip-path="url(#clipPath27)" />
      <path
         id="path28"
         d="m 0,0 c -2.813,0 -4.495,-1.798 -4.495,-4.745 0,-2.912 1.698,-4.744 4.445,-4.744 2.497,0 4.212,1.416 4.428,3.596 H 0.549 v 1.581 h 5.428 v -6.475 H 4.778 l -0.167,2.031 c -0.932,-1.532 -2.546,-2.347 -4.677,-2.347 -3.763,0 -6.21,2.546 -6.21,6.358 0,3.863 2.414,6.36 6.41,6.36 3.145,0 5.493,-1.765 5.726,-4.129 H 4.112 C 3.663,-0.916 2.198,0 0,0"
         style="fill:#1d4e9e;fill-opacity:1;fill-rule:nonzero;stroke:none;stroke-width:1.04181"
         transform="matrix(0.34159565,0,0,-0.33566926,112.20668,52.211373)"
         clip-path="url(#clipPath29)" />
      <path
         id="path30"
         d="M 0,0 H 9.605 V -1.582 H 1.714 V -5.111 H 9.122 V -6.693 H 1.714 v -3.811 h 8.007 v -1.582 H 0 Z"
         style="fill:#1d4e9e;fill-opacity:1;fill-rule:nonzero;stroke:none;stroke-width:1.04181"
         transform="matrix(0.34159565,0,0,-0.33566926,117.5399,51.77547)"
         clip-path="url(#clipPath31)" />
      <path
         id="path32"
         d="M 0,0 4.662,-10.521 9.44,0 h 2.546 V -12.086 H 10.322 V -1.482 L 5.527,-12.086 H 3.796 L -0.915,-1.482 V -12.086 H -2.58 V 0 Z"
         style="fill:#1d4e9e;fill-opacity:1;fill-rule:nonzero;stroke:none;stroke-width:1.04181"
         transform="matrix(0.34159565,0,0,-0.33566926,124.8178,51.77547)"
         clip-path="url(#clipPath33)" />
      <path
         id="path34"
         d="M 0,0 H 9.605 V -1.582 H 1.714 V -5.111 H 9.122 V -6.693 H 1.714 v -3.811 h 8.007 v -1.582 H 0 Z"
         style="fill:#1d4e9e;fill-opacity:1;fill-rule:nonzero;stroke:none;stroke-width:1.04181"
         transform="matrix(0.34159565,0,0,-0.33566926,132.1864,51.77547)"
         clip-path="url(#clipPath35)" />
      <path
         id="path36"
         d="M 0,0 7.608,-10.305 V 0 H 9.272 V -12.086 H 6.959 L -0.632,-1.782 V -12.086 H -2.297 V 0 Z"
         style="fill:#1d4e9e;fill-opacity:1;fill-rule:nonzero;stroke:none;stroke-width:1.04181"
         transform="matrix(0.34159565,0,0,-0.33566926,139.36769,51.77547)"
         clip-path="url(#clipPath37)" />
      <path
         id="path38"
         d="m 0,0 v -1.582 h -4.611 v -10.504 h -1.714 v 10.504 h -4.612 V 0 Z"
         style="fill:#1d4e9e;fill-opacity:1;fill-rule:nonzero;stroke:none;stroke-width:1.04181"
         transform="matrix(0.34159565,0,0,-0.33566926,149.07366,51.77547)"
         clip-path="url(#clipPath39)" />
      <path
         id="path40"
         d="m 0,0 c -2.205,2.808 -5.844,5.49 -11.094,5.49 -8.829,0 -14.974,-7.156 -14.974,-14.913 0,-8.292 6.562,-15.214 15.032,-15.214 3.939,0 7.874,1.555 10.618,5.134 h 9.486 c -3.638,-7.756 -10.734,-13.066 -20.342,-13.066 -15.449,0 -22.966,13.004 -22.966,23.146 0,9.841 7.456,22.85 23.087,22.85 C -2.026,13.427 5.61,8.472 9.307,0 Z"
         style="fill:#1d4e9e;fill-opacity:1;fill-rule:nonzero;stroke:none;stroke-width:1.04181"
         transform="matrix(0.34159565,0,0,-0.33566926,56.082368,36.465028)"
         clip-path="url(#clipPath41)" />
      <path
         id="path42"
         d="m 0,0 c 0,8.233 -6.441,14.971 -15.092,14.971 -8.651,0 -15.092,-6.738 -15.092,-14.971 0,-8.355 6.504,-15.156 15.033,-15.156 C -6.383,-15.156 0,-8.233 0,0 m 8.174,-0.18 c 0,-12.765 -10.141,-22.908 -23.266,-22.908 -13.125,0 -23.268,10.143 -23.268,22.908 0,12.765 10.085,23.088 23.268,23.088 13.183,0 23.266,-10.323 23.266,-23.088"
         style="fill:#1d4e9e;fill-opacity:1;fill-rule:nonzero;stroke:none;stroke-width:1.04181"
         transform="matrix(0.34159565,0,0,-0.33566926,73.392079,39.647578)"
         clip-path="url(#clipPath43)" />
      <path
         id="path44"
         d="M 0,0 H 8.177 L 27.86,-29.825 V 0 h 8.174 V -44.145 H 27.86 l -19.683,29.83 v -29.83 H 0 Z"
         style="fill:#1d4e9e;fill-opacity:1;fill-rule:nonzero;stroke:none;stroke-width:1.04181"
         transform="matrix(0.34159565,0,0,-0.33566926,78.190436,32.218915)"
         clip-path="url(#clipPath45)" />
      <path
         id="path46"
         d="m 0,0 c -2.216,2.808 -5.85,5.49 -11.095,5.49 -8.832,0 -14.978,-7.156 -14.978,-14.913 0,-8.292 6.561,-15.214 15.036,-15.214 3.934,0 7.87,1.555 10.619,5.134 H 9.063 C 5.42,-27.259 -1.671,-32.569 -11.28,-32.569 c -15.448,0 -22.967,13.004 -22.967,23.146 0,9.841 7.461,22.85 23.083,22.85 9.132,0 16.769,-4.955 20.47,-13.427 z"
         style="fill:#1d4e9e;fill-opacity:1;fill-rule:nonzero;stroke:none;stroke-width:1.04181"
         transform="matrix(0.34159565,0,0,-0.33566926,104.20288,36.465028)"
         clip-path="url(#clipPath47)" />
      <path
         id="path48"
         d="m 0,0 c 0,8.233 -6.441,14.971 -15.098,14.971 -8.645,0 -15.086,-6.738 -15.086,-14.971 0,-8.355 6.498,-15.156 15.028,-15.156 C -6.383,-15.156 0,-8.233 0,0 m 8.17,-0.18 c 0,-12.765 -10.142,-22.908 -23.268,-22.908 -13.124,0 -23.265,10.143 -23.265,22.908 0,12.765 10.083,23.088 23.265,23.088 13.184,0 23.268,-10.323 23.268,-23.088"
         style="fill:#1d4e9e;fill-opacity:1;fill-rule:nonzero;stroke:none;stroke-width:1.04181"
         transform="matrix(0.34159565,0,0,-0.33566926,121.51245,39.647578)"
         clip-path="url(#clipPath49)" />
      <path
         id="path50"
         d="m 0,0 h 4.829 c 1.914,0 8.18,0.18 8.18,6.562 0,6.383 -6.266,6.563 -8.18,6.563 H 0 Z M -8.17,21.057 H 4.596 c 14.853,0 16.583,-9.783 16.583,-14.018 C 21.179,0 16.467,-6.086 9.248,-6.801 L 21.654,-23.088 H 11.57 L 0.118,-6.801 H 0 v -16.287 h -8.17 z"
         style="fill:#1d4e9e;fill-opacity:1;fill-rule:nonzero;stroke:none;stroke-width:1.04181"
         transform="matrix(0.34159565,0,0,-0.33566926,129.10185,39.287234)"
         clip-path="url(#clipPath51)" />
      <path
         id="path52"
         d="m 0,0 c 4.479,0 15.573,0.539 15.573,13.902 0,13.961 -11.512,14.379 -15.982,14.379 H -3.994 V 0 Z M -12.164,36.213 H 0.067 c 20.276,0 23.676,-13.723 23.676,-22.311 0,-4.712 -1.186,-21.834 -23.501,-21.834 h -12.406 z"
         style="fill:#1d4e9e;fill-opacity:1;fill-rule:nonzero;stroke:none;stroke-width:1.04181"
         transform="matrix(0.34159565,0,0,-0.33566926,142.29021,44.374505)"
         clip-path="url(#clipPath53)" />
    </g>
  </g>
</svg>
